<?xml version="1.0" encoding="UTF-8"?>
<!DOCTYPE svg PUBLIC "-//W3C//DTD SVG 1.1//EN" "http://www.w3.org/Graphics/SVG/1.1/DTD/svg11.dtd">
<svg version="1.2" width="180.01mm" height="180.01mm" viewBox="1600 7000 18001 18001" preserveAspectRatio="xMidYMid" fill-rule="evenodd" stroke-width="28.222" stroke-linejoin="round" xmlns="http://www.w3.org/2000/svg" xmlns:ooo="http://xml.openoffice.org/svg/export" xmlns:xlink="http://www.w3.org/1999/xlink" xmlns:presentation="http://sun.com/xmlns/staroffice/presentation" xmlns:smil="http://www.w3.org/2001/SMIL20/" xmlns:anim="urn:oasis:names:tc:opendocument:xmlns:animation:1.0" xml:space="preserve">
 <defs class="EmbeddedBulletChars">
  <g id="bullet-char-template-57356" transform="scale(0.00048828125,-0.00048828125)">
   <path d="M 580,1141 L 1163,571 580,0 -4,571 580,1141 Z"/>
  </g>
  <g id="bullet-char-template-57354" transform="scale(0.00048828125,-0.00048828125)">
   <path d="M 8,1128 L 1137,1128 1137,0 8,0 8,1128 Z"/>
  </g>
  <g id="bullet-char-template-10146" transform="scale(0.00048828125,-0.00048828125)">
   <path d="M 174,0 L 602,739 174,1481 1456,739 174,0 Z M 1358,739 L 309,1346 659,739 1358,739 Z"/>
  </g>
  <g id="bullet-char-template-10132" transform="scale(0.00048828125,-0.00048828125)">
   <path d="M 2015,739 L 1276,0 717,0 1260,543 174,543 174,936 1260,936 717,1481 1274,1481 2015,739 Z"/>
  </g>
  <g id="bullet-char-template-10007" transform="scale(0.00048828125,-0.00048828125)">
   <path d="M 0,-2 C -7,14 -16,27 -25,37 L 356,567 C 262,823 215,952 215,954 215,979 228,992 255,992 264,992 276,990 289,987 310,991 331,999 354,1012 L 381,999 492,748 772,1049 836,1024 860,1049 C 881,1039 901,1025 922,1006 886,937 835,863 770,784 769,783 710,716 594,584 L 774,223 C 774,196 753,168 711,139 L 727,119 C 717,90 699,76 672,76 641,76 570,178 457,381 L 164,-76 C 142,-110 111,-127 72,-127 30,-127 9,-110 8,-76 1,-67 -2,-52 -2,-32 -2,-23 -1,-13 0,-2 Z"/>
  </g>
  <g id="bullet-char-template-10004" transform="scale(0.00048828125,-0.00048828125)">
   <path d="M 285,-33 C 182,-33 111,30 74,156 52,228 41,333 41,471 41,549 55,616 82,672 116,743 169,778 240,778 293,778 328,747 346,684 L 369,508 C 377,444 397,411 428,410 L 1163,1116 C 1174,1127 1196,1133 1229,1133 1271,1133 1292,1118 1292,1087 L 1292,965 C 1292,929 1282,901 1262,881 L 442,47 C 390,-6 338,-33 285,-33 Z"/>
  </g>
  <g id="bullet-char-template-9679" transform="scale(0.00048828125,-0.00048828125)">
   <path d="M 813,0 C 632,0 489,54 383,161 276,268 223,411 223,592 223,773 276,916 383,1023 489,1130 632,1184 813,1184 992,1184 1136,1130 1245,1023 1353,916 1407,772 1407,592 1407,412 1353,268 1245,161 1136,54 992,0 813,0 Z"/>
  </g>
  <g id="bullet-char-template-8226" transform="scale(0.00048828125,-0.00048828125)">
   <path d="M 346,457 C 273,457 209,483 155,535 101,586 74,649 74,723 74,796 101,859 155,911 209,963 273,989 346,989 419,989 480,963 531,910 582,859 608,796 608,723 608,648 583,586 532,535 482,483 420,457 346,457 Z"/>
  </g>
  <g id="bullet-char-template-8211" transform="scale(0.00048828125,-0.00048828125)">
   <path d="M -4,459 L 1135,459 1135,606 -4,606 -4,459 Z"/>
  </g>
  <g id="bullet-char-template-61548" transform="scale(0.00048828125,-0.00048828125)">
   <path d="M 173,740 C 173,903 231,1043 346,1159 462,1274 601,1332 765,1332 928,1332 1067,1274 1183,1159 1299,1043 1357,903 1357,740 1357,577 1299,437 1183,322 1067,206 928,148 765,148 601,148 462,206 346,322 231,437 173,577 173,740 Z"/>
  </g>
 </defs>
 <g class="Page">
  <g class="com.sun.star.drawing.CustomShape">
   <g id="id3">
    <rect class="BoundingBox" stroke="none" fill="none" x="1600" y="7000" width="18001" height="18001"/>
    <path fill="rgb(2,116,178)" stroke="none" d="M 10600,25000 L 1600,25000 1600,7000 19600,7000 19600,25000 10600,25000 Z"/>
   </g>
  </g>
  <g class="com.sun.star.drawing.ClosedBezierShape">
   <g id="id4">
    <rect class="BoundingBox" stroke="none" fill="none" x="8384" y="17351" width="1749" height="1969"/>
    <path fill="rgb(255,213,80)" stroke="none" d="M 8490,19213 C 9002,18875 9513,18537 10025,18199 9697,17952 9369,17705 9041,17458 8857,18043 8674,18628 8490,19213 Z"/>
    <path fill="none" stroke="rgb(0,0,0)" stroke-width="212" stroke-linejoin="round" d="M 8490,19213 C 9002,18875 9513,18537 10025,18199 L 9041,17458 C 8857,18043 8674,18628 8490,19213 Z"/>
   </g>
  </g>
  <g class="com.sun.star.drawing.ClosedBezierShape">
   <g id="id5">
    <rect class="BoundingBox" stroke="none" fill="none" x="13039" y="16143" width="2049" height="1473"/>
    <path fill="rgb(255,213,80)" stroke="none" d="M 14980,17508 C 14533,17088 14086,16669 13638,16250 13474,16626 13310,17002 13145,17378 13757,17421 14368,17465 14980,17508 Z"/>
    <path fill="none" stroke="rgb(0,0,0)" stroke-width="212" stroke-linejoin="round" d="M 14980,17508 C 14533,17088 14086,16669 13638,16250 L 13145,17378 C 13757,17421 14368,17465 14980,17508 Z"/>
   </g>
  </g>
  <g class="com.sun.star.drawing.ClosedBezierShape">
   <g id="id6">
    <rect class="BoundingBox" stroke="none" fill="none" x="13099" y="14137" width="2052" height="1419"/>
    <path fill="rgb(255,213,80)" stroke="none" d="M 15044,14244 C 14430,14263 13818,14283 13205,14302 13354,14684 13504,15067 13654,15448 14117,15046 14580,14645 15044,14244 Z"/>
    <path fill="none" stroke="rgb(0,0,0)" stroke-width="212" stroke-linejoin="round" d="M 15044,14244 C 14430,14263 13818,14283 13205,14302 13354,14684 13504,15067 13654,15448 14117,15046 14580,14645 15044,14244 Z"/>
   </g>
  </g>
  <g class="com.sun.star.drawing.ClosedBezierShape">
   <g id="id7">
    <rect class="BoundingBox" stroke="none" fill="none" x="11414" y="11784" width="1473" height="2048"/>
    <path fill="rgb(255,213,80)" stroke="none" d="M 12779,11890 C 12359,12337 11941,12784 11521,13232 11897,13396 12273,13561 12649,13725 12692,13113 12736,12502 12779,11890 Z"/>
    <path fill="none" stroke="rgb(0,0,0)" stroke-width="212" stroke-linejoin="round" d="M 12779,11890 C 12359,12337 11941,12784 11521,13232 L 12649,13725 C 12692,13113 12736,12502 12779,11890 Z"/>
   </g>
  </g>
  <g class="com.sun.star.drawing.ClosedBezierShape">
   <g id="id8">
    <rect class="BoundingBox" stroke="none" fill="none" x="9410" y="11721" width="1418" height="2051"/>
    <path fill="rgb(255,213,80)" stroke="none" d="M 9516,11827 C 9535,12440 9555,13053 9574,13665 9956,13516 10339,13366 10720,13216 10319,12753 9917,12290 9516,11827 Z"/>
    <path fill="none" stroke="rgb(0,0,0)" stroke-width="212" stroke-linejoin="round" d="M 9516,11827 C 9535,12440 9555,13053 9574,13665 9956,13516 10339,13366 10720,13216 10319,12753 9917,12290 9516,11827 Z"/>
   </g>
  </g>
  <g class="com.sun.star.drawing.ClosedBezierShape">
   <g id="id9">
    <rect class="BoundingBox" stroke="none" fill="none" x="7056" y="13984" width="2048" height="1473"/>
    <path fill="rgb(255,213,80)" stroke="none" d="M 7162,14091 C 7609,14511 8056,14929 8504,15349 8668,14973 8833,14597 8997,14221 8385,14177 7774,14134 7162,14091 Z"/>
    <path fill="none" stroke="rgb(0,0,0)" stroke-width="212" stroke-linejoin="round" d="M 7162,14091 C 7609,14511 8056,14929 8504,15349 L 8997,14221 C 8385,14177 7774,14134 7162,14091 Z"/>
   </g>
  </g>
  <g class="com.sun.star.drawing.ClosedBezierShape">
   <g id="id10">
    <rect class="BoundingBox" stroke="none" fill="none" x="8817" y="13567" width="4480" height="4479"/>
    <path fill="rgb(255,213,80)" stroke="none" d="M 13169,15509 C 13221,15880 13175,16258 13035,16605 12895,16952 12666,17256 12370,17487 12075,17717 11725,17866 11354,17918 10983,17970 10605,17924 10258,17784 9911,17644 9607,17415 9376,17119 9146,16824 8997,16474 8945,16103 8893,15732 8939,15354 9079,15007 9219,14660 9448,14356 9744,14125 10039,13895 10389,13746 10760,13694 11131,13642 11509,13688 11856,13828 12203,13968 12507,14197 12738,14493 12968,14788 13117,15138 13169,15509 Z"/>
    <path fill="none" stroke="rgb(0,0,0)" stroke-width="212" stroke-linejoin="round" d="M 13169,15509 C 13221,15880 13175,16258 13035,16605 12895,16952 12666,17256 12370,17487 12075,17717 11725,17866 11354,17918 10983,17970 10605,17924 10258,17784 9911,17644 9607,17415 9376,17119 9146,16824 8997,16474 8945,16103 8893,15732 8939,15354 9079,15007 9219,14660 9448,14356 9744,14125 10039,13895 10389,13746 10760,13694 11131,13642 11509,13688 11856,13828 12203,13968 12507,14197 12738,14493 12968,14788 13117,15138 13169,15509 Z"/>
   </g>
  </g>
  <g class="Group">
   <g class="com.sun.star.drawing.CustomShape">
    <g id="id11">
     <rect class="BoundingBox" stroke="none" fill="none" x="6400" y="17776" width="6792" height="2064"/>
     <path fill="rgb(251,251,251)" stroke="none" d="M 7431,17776 L 7431,17776 C 7250,17776 7072,17824 6916,17914 6759,18005 6629,18135 6538,18292 6448,18448 6400,18626 6400,18807 L 6400,18807 6400,18807 C 6400,18988 6448,19166 6538,19323 6629,19479 6759,19609 6916,19700 7072,19790 7250,19838 7431,19838 L 12160,19838 12160,19838 C 12341,19838 12519,19790 12676,19700 12832,19609 12962,19479 13053,19323 13143,19166 13191,18988 13191,18807 L 13191,18807 13191,18807 13191,18807 C 13191,18626 13143,18448 13053,18292 12962,18135 12832,18005 12676,17914 12519,17824 12341,17776 12160,17776 L 7431,17776 Z"/>
    </g>
   </g>
   <g class="com.sun.star.drawing.CustomShape">
    <g id="id12">
     <rect class="BoundingBox" stroke="none" fill="none" x="6930" y="16850" width="2694" height="2534"/>
     <path fill="rgb(251,251,251)" stroke="none" d="M 9623,18117 C 9623,18339 9561,18558 9443,18750 9324,18942 9154,19102 8950,19213 8745,19325 8513,19383 8277,19383 8040,19383 7808,19325 7603,19213 7399,19102 7229,18942 7110,18750 6992,18558 6930,18339 6930,18117 6930,17895 6992,17676 7110,17484 7229,17292 7399,17132 7603,17021 7808,16909 8040,16851 8276,16851 8513,16851 8745,16909 8950,17021 9154,17132 9324,17292 9443,17484 9561,17676 9623,17895 9623,18117 L 9623,18117 Z"/>
    </g>
   </g>
   <g class="com.sun.star.drawing.CustomShape">
    <g id="id13">
     <rect class="BoundingBox" stroke="none" fill="none" x="10625" y="16353" width="2348" height="2520"/>
     <path fill="rgb(251,251,251)" stroke="none" d="M 12925,17914 C 12868,18129 12759,18326 12610,18485 12462,18644 12278,18761 12078,18822 11878,18883 11669,18888 11471,18835 11274,18782 11095,18673 10952,18520 10810,18367 10709,18175 10660,17962 10611,17750 10615,17525 10673,17311 10730,17096 10839,16899 10987,16740 11136,16581 11319,16464 11519,16403 11719,16342 11929,16337 12126,16390 12324,16443 12503,16552 12646,16705 12788,16858 12889,17050 12938,17263 12987,17475 12983,17700 12925,17914 L 12925,17914 Z"/>
    </g>
   </g>
   <g class="com.sun.star.drawing.CustomShape">
    <g id="id14">
     <rect class="BoundingBox" stroke="none" fill="none" x="8368" y="15451" width="2944" height="3120"/>
     <path fill="rgb(251,251,251)" stroke="none" d="M 11311,17011 C 11311,17284 11243,17553 11114,17790 10985,18027 10799,18224 10575,18361 10352,18498 10098,18570 9840,18570 9582,18570 9328,18498 9104,18361 8881,18224 8695,18027 8566,17790 8437,17553 8369,17284 8369,17011 8369,16737 8437,16468 8566,16231 8695,15994 8881,15797 9104,15660 9328,15523 9582,15451 9840,15451 10098,15451 10352,15523 10575,15660 10799,15797 10985,15994 11114,16231 11243,16468 11311,16737 11311,17010 L 11311,17011 Z"/>
    </g>
   </g>
  </g>
  <g class="Group">
   <g class="com.sun.star.drawing.EllipseShape">
    <g id="id15">
     <rect class="BoundingBox" stroke="none" fill="none" x="8251" y="15345" width="3090" height="1582"/>
     <path fill="none" stroke="rgb(0,0,0)" stroke-width="212" stroke-linejoin="round" stroke-linecap="round" d="M 8357,16820 C 8357,16800 8358,16781 8359,16761 8374,16518 8456,16283 8597,16079 8738,15875 8933,15710 9163,15600 9393,15491 9650,15440 9907,15453 10164,15467 10413,15544 10629,15678 10844,15811 11019,15995 11135,16213 11175,16288 11208,16366 11233,16447"/>
    </g>
   </g>
   <g class="com.sun.star.drawing.EllipseShape">
    <g id="id16">
     <rect class="BoundingBox" stroke="none" fill="none" x="11097" y="16222" width="2001" height="1848"/>
     <path fill="none" stroke="rgb(0,0,0)" stroke-width="212" stroke-linejoin="round" stroke-linecap="round" d="M 11204,16497 C 11218,16489 11232,16481 11247,16473 11424,16378 11624,16328 11829,16328 12033,16328 12233,16378 12410,16473 12586,16568 12733,16704 12835,16869 12937,17033 12991,17219 12991,17409 12991,17599 12937,17785 12835,17950 12833,17954 12830,17958 12827,17962"/>
    </g>
   </g>
   <g class="com.sun.star.drawing.EllipseShape">
    <g id="id17">
     <rect class="BoundingBox" stroke="none" fill="none" x="11633" y="17798" width="1719" height="2208"/>
     <path fill="none" stroke="rgb(0,0,0)" stroke-width="212" stroke-linejoin="round" stroke-linecap="round" d="M 12828,17904 C 12909,17971 12980,18045 13039,18124 13174,18304 13245,18508 13245,18716 13245,18923 13174,19127 13039,19307 12905,19487 12711,19637 12478,19740 12253,19840 11999,19895 11740,19899"/>
    </g>
   </g>
   <g class="com.sun.star.drawing.LineShape">
    <g id="id18">
     <rect class="BoundingBox" stroke="none" fill="none" x="7471" y="19794" width="4449" height="213"/>
     <path fill="none" stroke="rgb(0,0,0)" stroke-width="212" stroke-linejoin="round" stroke-linecap="round" d="M 11813,19900 L 7577,19900"/>
    </g>
   </g>
   <g class="com.sun.star.drawing.EllipseShape">
    <g id="id19">
     <rect class="BoundingBox" stroke="none" fill="none" x="6847" y="16701" width="1670" height="1329"/>
     <path fill="none" stroke="rgb(0,0,0)" stroke-width="212" stroke-linejoin="round" stroke-linecap="round" d="M 6953,17923 C 6976,17739 7036,17562 7129,17405 7240,17216 7395,17061 7577,16957 7759,16852 7963,16801 8168,16809 8249,16812 8330,16824 8409,16845"/>
    </g>
   </g>
   <g class="com.sun.star.drawing.EllipseShape">
    <g id="id20">
     <rect class="BoundingBox" stroke="none" fill="none" x="6294" y="17781" width="1412" height="2227"/>
     <path fill="none" stroke="rgb(0,0,0)" stroke-width="212" stroke-linejoin="round" stroke-linecap="round" d="M 7599,19901 C 7421,19881 7249,19834 7094,19761 6883,19663 6708,19522 6586,19352 6464,19181 6400,18988 6400,18792 6400,18596 6464,18403 6586,18233 6683,18097 6814,17980 6970,17888"/>
    </g>
   </g>
  </g>
 </g>
</svg>