<?xml version="1.0" encoding="UTF-8"?>
<!DOCTYPE svg PUBLIC "-//W3C//DTD SVG 1.1//EN" "http://www.w3.org/Graphics/SVG/1.1/DTD/svg11.dtd">
<svg version="1.2" width="180.01mm" height="180.01mm" viewBox="1600 7000 18001 18001" preserveAspectRatio="xMidYMid" fill-rule="evenodd" stroke-width="28.222" stroke-linejoin="round" xmlns="http://www.w3.org/2000/svg" xmlns:ooo="http://xml.openoffice.org/svg/export" xmlns:xlink="http://www.w3.org/1999/xlink" xmlns:presentation="http://sun.com/xmlns/staroffice/presentation" xmlns:smil="http://www.w3.org/2001/SMIL20/" xmlns:anim="urn:oasis:names:tc:opendocument:xmlns:animation:1.0" xml:space="preserve">
 <defs class="EmbeddedBulletChars">
  <g id="bullet-char-template-57356" transform="scale(0.00048828125,-0.00048828125)">
   <path d="M 580,1141 L 1163,571 580,0 -4,571 580,1141 Z"/>
  </g>
  <g id="bullet-char-template-57354" transform="scale(0.00048828125,-0.00048828125)">
   <path d="M 8,1128 L 1137,1128 1137,0 8,0 8,1128 Z"/>
  </g>
  <g id="bullet-char-template-10146" transform="scale(0.00048828125,-0.00048828125)">
   <path d="M 174,0 L 602,739 174,1481 1456,739 174,0 Z M 1358,739 L 309,1346 659,739 1358,739 Z"/>
  </g>
  <g id="bullet-char-template-10132" transform="scale(0.00048828125,-0.00048828125)">
   <path d="M 2015,739 L 1276,0 717,0 1260,543 174,543 174,936 1260,936 717,1481 1274,1481 2015,739 Z"/>
  </g>
  <g id="bullet-char-template-10007" transform="scale(0.00048828125,-0.00048828125)">
   <path d="M 0,-2 C -7,14 -16,27 -25,37 L 356,567 C 262,823 215,952 215,954 215,979 228,992 255,992 264,992 276,990 289,987 310,991 331,999 354,1012 L 381,999 492,748 772,1049 836,1024 860,1049 C 881,1039 901,1025 922,1006 886,937 835,863 770,784 769,783 710,716 594,584 L 774,223 C 774,196 753,168 711,139 L 727,119 C 717,90 699,76 672,76 641,76 570,178 457,381 L 164,-76 C 142,-110 111,-127 72,-127 30,-127 9,-110 8,-76 1,-67 -2,-52 -2,-32 -2,-23 -1,-13 0,-2 Z"/>
  </g>
  <g id="bullet-char-template-10004" transform="scale(0.00048828125,-0.00048828125)">
   <path d="M 285,-33 C 182,-33 111,30 74,156 52,228 41,333 41,471 41,549 55,616 82,672 116,743 169,778 240,778 293,778 328,747 346,684 L 369,508 C 377,444 397,411 428,410 L 1163,1116 C 1174,1127 1196,1133 1229,1133 1271,1133 1292,1118 1292,1087 L 1292,965 C 1292,929 1282,901 1262,881 L 442,47 C 390,-6 338,-33 285,-33 Z"/>
  </g>
  <g id="bullet-char-template-9679" transform="scale(0.00048828125,-0.00048828125)">
   <path d="M 813,0 C 632,0 489,54 383,161 276,268 223,411 223,592 223,773 276,916 383,1023 489,1130 632,1184 813,1184 992,1184 1136,1130 1245,1023 1353,916 1407,772 1407,592 1407,412 1353,268 1245,161 1136,54 992,0 813,0 Z"/>
  </g>
  <g id="bullet-char-template-8226" transform="scale(0.00048828125,-0.00048828125)">
   <path d="M 346,457 C 273,457 209,483 155,535 101,586 74,649 74,723 74,796 101,859 155,911 209,963 273,989 346,989 419,989 480,963 531,910 582,859 608,796 608,723 608,648 583,586 532,535 482,483 420,457 346,457 Z"/>
  </g>
  <g id="bullet-char-template-8211" transform="scale(0.00048828125,-0.00048828125)">
   <path d="M -4,459 L 1135,459 1135,606 -4,606 -4,459 Z"/>
  </g>
  <g id="bullet-char-template-61548" transform="scale(0.00048828125,-0.00048828125)">
   <path d="M 173,740 C 173,903 231,1043 346,1159 462,1274 601,1332 765,1332 928,1332 1067,1274 1183,1159 1299,1043 1357,903 1357,740 1357,577 1299,437 1183,322 1067,206 928,148 765,148 601,148 462,206 346,322 231,437 173,577 173,740 Z"/>
  </g>
 </defs>
 <g class="Page">
  <g class="com.sun.star.drawing.CustomShape">
   <g id="id3">
    <rect class="BoundingBox" stroke="none" fill="none" x="1600" y="7000" width="18001" height="18001"/>
    <path fill="rgb(2,116,178)" stroke="none" d="M 10600,25000 L 1600,25000 1600,7000 19600,7000 19600,25000 10600,25000 Z"/>
   </g>
  </g>
  <g class="com.sun.star.drawing.ClosedBezierShape">
   <g id="id4">
    <rect class="BoundingBox" stroke="none" fill="none" x="8331" y="17298" width="1855" height="2075"/>
    <path fill="rgb(255,213,80)" stroke="none" d="M 8490,19213 C 9002,18875 9513,18537 10025,18199 9697,17952 9369,17705 9041,17458 8857,18043 8674,18628 8490,19213 Z"/>
    <path fill="none" stroke="rgb(0,0,0)" stroke-width="318" stroke-linejoin="round" d="M 8490,19213 C 9002,18875 9513,18537 10025,18199 L 9041,17458 C 8857,18043 8674,18628 8490,19213 Z"/>
   </g>
  </g>
  <g class="com.sun.star.drawing.ClosedBezierShape">
   <g id="id5">
    <rect class="BoundingBox" stroke="none" fill="none" x="12986" y="16090" width="2155" height="1579"/>
    <path fill="rgb(255,213,80)" stroke="none" d="M 14980,17508 C 14533,17088 14086,16669 13638,16250 13474,16626 13310,17002 13145,17378 13757,17421 14368,17465 14980,17508 Z"/>
    <path fill="none" stroke="rgb(0,0,0)" stroke-width="318" stroke-linejoin="round" d="M 14980,17508 C 14533,17088 14086,16669 13638,16250 L 13145,17378 C 13757,17421 14368,17465 14980,17508 Z"/>
   </g>
  </g>
  <g class="com.sun.star.drawing.ClosedBezierShape">
   <g id="id6">
    <rect class="BoundingBox" stroke="none" fill="none" x="13046" y="14084" width="2158" height="1525"/>
    <path fill="rgb(255,213,80)" stroke="none" d="M 15044,14244 C 14430,14263 13818,14283 13205,14302 13354,14684 13504,15067 13654,15448 14117,15046 14580,14645 15044,14244 Z"/>
    <path fill="none" stroke="rgb(0,0,0)" stroke-width="318" stroke-linejoin="round" d="M 15044,14244 C 14430,14263 13818,14283 13205,14302 13354,14684 13504,15067 13654,15448 14117,15046 14580,14645 15044,14244 Z"/>
   </g>
  </g>
  <g class="com.sun.star.drawing.ClosedBezierShape">
   <g id="id7">
    <rect class="BoundingBox" stroke="none" fill="none" x="11361" y="11731" width="1579" height="2154"/>
    <path fill="rgb(255,213,80)" stroke="none" d="M 12779,11890 C 12359,12337 11941,12784 11521,13232 11897,13396 12273,13561 12649,13725 12692,13113 12736,12502 12779,11890 Z"/>
    <path fill="none" stroke="rgb(0,0,0)" stroke-width="318" stroke-linejoin="round" d="M 12779,11890 C 12359,12337 11941,12784 11521,13232 L 12649,13725 C 12692,13113 12736,12502 12779,11890 Z"/>
   </g>
  </g>
  <g class="com.sun.star.drawing.ClosedBezierShape">
   <g id="id8">
    <rect class="BoundingBox" stroke="none" fill="none" x="9357" y="11668" width="1524" height="2157"/>
    <path fill="rgb(255,213,80)" stroke="none" d="M 9516,11827 C 9535,12440 9555,13053 9574,13665 9956,13516 10339,13366 10720,13216 10319,12753 9917,12290 9516,11827 Z"/>
    <path fill="none" stroke="rgb(0,0,0)" stroke-width="318" stroke-linejoin="round" d="M 9516,11827 C 9535,12440 9555,13053 9574,13665 9956,13516 10339,13366 10720,13216 10319,12753 9917,12290 9516,11827 Z"/>
   </g>
  </g>
  <g class="com.sun.star.drawing.ClosedBezierShape">
   <g id="id9">
    <rect class="BoundingBox" stroke="none" fill="none" x="7003" y="13931" width="2154" height="1579"/>
    <path fill="rgb(255,213,80)" stroke="none" d="M 7162,14091 C 7609,14511 8056,14929 8504,15349 8668,14973 8833,14597 8997,14221 8385,14177 7774,14134 7162,14091 Z"/>
    <path fill="none" stroke="rgb(0,0,0)" stroke-width="318" stroke-linejoin="round" d="M 7162,14091 C 7609,14511 8056,14929 8504,15349 L 8997,14221 C 8385,14177 7774,14134 7162,14091 Z"/>
   </g>
  </g>
  <g class="com.sun.star.drawing.ClosedBezierShape">
   <g id="id10">
    <rect class="BoundingBox" stroke="none" fill="none" x="8764" y="13514" width="4586" height="4585"/>
    <path fill="rgb(255,213,80)" stroke="none" d="M 13169,15509 C 13221,15880 13175,16258 13035,16605 12895,16952 12666,17256 12370,17487 12075,17717 11725,17866 11354,17918 10983,17970 10605,17924 10258,17784 9911,17644 9607,17415 9376,17119 9146,16824 8997,16474 8945,16103 8893,15732 8939,15354 9079,15007 9219,14660 9448,14356 9744,14125 10039,13895 10389,13746 10760,13694 11131,13642 11509,13688 11856,13828 12203,13968 12507,14197 12738,14493 12968,14788 13117,15138 13169,15509 Z"/>
    <path fill="none" stroke="rgb(0,0,0)" stroke-width="318" stroke-linejoin="round" d="M 13169,15509 C 13221,15880 13175,16258 13035,16605 12895,16952 12666,17256 12370,17487 12075,17717 11725,17866 11354,17918 10983,17970 10605,17924 10258,17784 9911,17644 9607,17415 9376,17119 9146,16824 8997,16474 8945,16103 8893,15732 8939,15354 9079,15007 9219,14660 9448,14356 9744,14125 10039,13895 10389,13746 10760,13694 11131,13642 11509,13688 11856,13828 12203,13968 12507,14197 12738,14493 12968,14788 13117,15138 13169,15509 Z"/>
   </g>
  </g>
  <g class="Group">
   <g class="com.sun.star.drawing.CustomShape">
    <g id="id11">
     <rect class="BoundingBox" stroke="none" fill="none" x="6400" y="17899" width="6781" height="1841"/>
     <path fill="rgb(251,251,251)" stroke="none" d="M 7319,17900 L 7320,17900 C 7158,17900 7000,17942 6860,18023 6720,18104 6604,18220 6523,18360 6442,18500 6400,18658 6400,18819 L 6400,18819 6400,18819 C 6400,18981 6442,19139 6523,19279 6604,19419 6720,19535 6860,19616 7000,19697 7158,19739 7320,19739 L 12259,19739 12260,19739 C 12421,19739 12579,19697 12719,19616 12859,19535 12975,19419 13056,19279 13137,19139 13179,18981 13179,18819 L 13179,18819 13179,18819 13179,18819 C 13179,18658 13137,18500 13056,18360 12975,18220 12859,18104 12719,18023 12579,17942 12421,17900 12260,17900 L 7319,17900 Z"/>
    </g>
   </g>
   <g class="com.sun.star.drawing.CustomShape">
    <g id="id12">
     <rect class="BoundingBox" stroke="none" fill="none" x="6927" y="16824" width="2690" height="2471"/>
     <path fill="rgb(251,251,251)" stroke="none" d="M 9616,18059 C 9616,18276 9554,18489 9436,18677 9318,18864 9148,19020 8944,19129 8740,19237 8508,19294 8272,19294 8036,19294 7804,19237 7600,19129 7396,19020 7226,18864 7108,18677 6990,18489 6928,18276 6928,18059 6928,17842 6990,17629 7108,17442 7226,17254 7396,17098 7600,16989 7804,16881 8036,16824 8272,16824 8508,16824 8740,16881 8944,16989 9148,17098 9318,17254 9436,17442 9554,17629 9616,17842 9616,18059 L 9616,18059 Z"/>
    </g>
   </g>
   <g class="com.sun.star.drawing.CustomShape">
    <g id="id13">
     <rect class="BoundingBox" stroke="none" fill="none" x="10362" y="16346" width="2690" height="2470"/>
     <path fill="rgb(251,251,251)" stroke="none" d="M 13051,17581 C 13051,17797 12989,18010 12871,18198 12753,18385 12583,18541 12379,18650 12175,18758 11943,18815 11707,18815 11471,18815 11239,18758 11035,18650 10831,18541 10661,18385 10543,18198 10425,18010 10363,17797 10363,17581 10363,17364 10425,17151 10543,16963 10661,16776 10831,16620 11035,16511 11239,16403 11471,16346 11707,16346 11943,16346 12175,16403 12379,16511 12583,16620 12753,16776 12871,16963 12989,17151 13051,17364 13051,17581 L 13051,17581 Z"/>
    </g>
   </g>
   <g class="com.sun.star.drawing.CustomShape">
    <g id="id14">
     <rect class="BoundingBox" stroke="none" fill="none" x="8465" y="15458" width="2811" height="3045"/>
     <path fill="rgb(251,251,251)" stroke="none" d="M 11275,16980 C 11275,17247 11210,17509 11087,17740 10963,17972 10786,18164 10573,18297 10359,18431 10117,18501 9870,18501 9623,18501 9381,18431 9168,18297 8954,18164 8777,17972 8653,17740 8530,17509 8465,17247 8465,16980 8465,16712 8530,16450 8653,16219 8777,15987 8954,15795 9168,15662 9381,15528 9623,15458 9870,15458 10117,15458 10359,15528 10573,15662 10786,15795 10963,15987 11087,16219 11210,16450 11275,16712 11275,16980 L 11275,16980 Z"/>
    </g>
   </g>
  </g>
  <g class="Group">
   <g class="com.sun.star.drawing.EllipseShape">
    <g id="id15">
     <rect class="BoundingBox" stroke="none" fill="none" x="8198" y="15292" width="3196" height="1688"/>
     <path fill="none" stroke="rgb(0,0,0)" stroke-width="318" stroke-linejoin="round" stroke-linecap="round" d="M 8357,16820 C 8357,16800 8358,16781 8359,16761 8374,16518 8456,16283 8597,16079 8738,15875 8933,15710 9163,15600 9393,15491 9650,15440 9907,15453 10164,15467 10413,15544 10629,15678 10844,15811 11019,15995 11135,16213 11175,16288 11208,16366 11233,16447"/>
    </g>
   </g>
   <g class="com.sun.star.drawing.EllipseShape">
    <g id="id16">
     <rect class="BoundingBox" stroke="none" fill="none" x="11044" y="16169" width="2107" height="1954"/>
     <path fill="none" stroke="rgb(0,0,0)" stroke-width="318" stroke-linejoin="round" stroke-linecap="round" d="M 11204,16497 C 11218,16489 11232,16481 11247,16473 11424,16378 11624,16328 11829,16328 12033,16328 12233,16378 12410,16473 12586,16568 12733,16704 12835,16869 12937,17033 12991,17219 12991,17409 12991,17599 12937,17785 12835,17950 12833,17954 12830,17958 12827,17962"/>
    </g>
   </g>
   <g class="com.sun.star.drawing.EllipseShape">
    <g id="id17">
     <rect class="BoundingBox" stroke="none" fill="none" x="11580" y="17745" width="1825" height="2314"/>
     <path fill="none" stroke="rgb(0,0,0)" stroke-width="318" stroke-linejoin="round" stroke-linecap="round" d="M 12828,17904 C 12909,17971 12980,18045 13039,18124 13174,18304 13245,18508 13245,18716 13245,18923 13174,19127 13039,19307 12905,19487 12711,19637 12478,19740 12253,19840 11999,19895 11740,19899"/>
    </g>
   </g>
   <g class="com.sun.star.drawing.LineShape">
    <g id="id18">
     <rect class="BoundingBox" stroke="none" fill="none" x="7418" y="19741" width="4555" height="319"/>
     <path fill="none" stroke="rgb(0,0,0)" stroke-width="318" stroke-linejoin="round" stroke-linecap="round" d="M 11813,19900 L 7577,19900"/>
    </g>
   </g>
   <g class="com.sun.star.drawing.EllipseShape">
    <g id="id19">
     <rect class="BoundingBox" stroke="none" fill="none" x="6794" y="16648" width="1776" height="1435"/>
     <path fill="none" stroke="rgb(0,0,0)" stroke-width="318" stroke-linejoin="round" stroke-linecap="round" d="M 6953,17923 C 6976,17739 7036,17562 7129,17405 7240,17216 7395,17061 7577,16957 7759,16852 7963,16801 8168,16809 8249,16812 8330,16824 8409,16845"/>
    </g>
   </g>
   <g class="com.sun.star.drawing.EllipseShape">
    <g id="id20">
     <rect class="BoundingBox" stroke="none" fill="none" x="6241" y="17728" width="1518" height="2333"/>
     <path fill="none" stroke="rgb(0,0,0)" stroke-width="318" stroke-linejoin="round" stroke-linecap="round" d="M 7599,19901 C 7421,19881 7249,19834 7094,19761 6883,19663 6708,19522 6586,19352 6464,19181 6400,18988 6400,18792 6400,18596 6464,18403 6586,18233 6683,18097 6814,17980 6970,17888"/>
    </g>
   </g>
  </g>
 </g>
</svg>